<svg xmlns="http://www.w3.org/2000/svg"><style>:root svg:not(:target){display:none}</style><svg viewBox="0 0 12 16" fill="none" id="academy-logo"><path d="m11.22 5.75-5.25-3.25-5.19 3.25v-4.34l5.22-.58 5.22.58v4.34Zm0 .58-2.1 1.3-3.14-1.97v.57l2.68 1.68-.46.29-2.22-1.4v.58l1.75 1.1-.41.29h-.01l-1.33-.82v.58l.87.53-.89.56-5.16-3.23 5.17-3.28 5.24 3.22Zm0 5.44-5.22 3.27-5.22-3.27v-4.74l5.2 3.25v.59l-3.56-2.23v.57l3.58 2.26v.6l-3.57-2.23v.57l3.57 2.26 3.6-2.27v-2.44l1.62-1.01v4.82Zm-5.22-11.77-6 .66v11.58l6 3.76 6-3.76v-11.58l-6-.66Z" fill="#593CAC"></path></svg><svg viewBox="0 0 13 16" fill="none" id="address-icon"><path fill-rule="evenodd" clip-rule="evenodd" d="M11.8 6.5c0 2.33-1.37 4.42-2.91 6.01a17.54 17.54 0 0 1-2.39 2.05 16.93 16.93 0 0 1-2.39-2.05c-1.54-1.6-2.91-3.68-2.91-6.01a5.3 5.3 0 1 1 10.6 0Zm1.2 0c0 5.59-6.5 9.5-6.5 9.5s-6.5-3.91-6.5-9.5a6.5 6.5 0 0 1 13 0Zm-4.2 0a2.3 2.3 0 1 1-4.6 0 2.3 2.3 0 0 1 4.6 0Zm1.2 0a3.5 3.5 0 1 1-7 0 3.5 3.5 0 0 1 7 0Z" fill="#7859CF"></path></svg><svg viewBox="0 0 10 10" fill="none" id="arrow-down"><path fill-rule="evenodd" clip-rule="evenodd" d="m0 4.2 1.24-1.2 3.76 3.62 3.76-3.62 1.24 1.2-5 4.8-5-4.8Z" fill="#7859CF"></path></svg><svg viewBox="0 0 11 20" fill="none" id="arrow-ro-right-gray"><path fill-rule="evenodd" clip-rule="evenodd" d="m1.28 20-1.28-1.32 8.43-8.68-8.43-8.68 1.28-1.32 9.72 10-9.72 10Z" fill="#BDBDBD"></path></svg><svg viewBox="0 0 10 6" fill="none" id="arrow-to-down"><path fill-rule="evenodd" clip-rule="evenodd" d="m0 1.2 1.24-1.2 3.76 3.62 3.76-3.62 1.24 1.2-5 4.8-5-4.8Z" fill="#7859CF"></path></svg><svg viewBox="0 0 11 20" fill="none" id="arrow-to-left-gray"><path fill-rule="evenodd" clip-rule="evenodd" d="m9.72 0 1.28 1.32-8.43 8.68 8.43 8.68-1.28 1.32-9.72-10 9.72-10Z" fill="#BDBDBD"></path></svg><svg viewBox="0 0 20 20" fill="none" id="arrow-to-left"><path fill-rule="evenodd" clip-rule="evenodd" d="m13.72 0 1.28 1.32-8.43 8.68 8.43 8.68-1.28 1.32-9.72-10 9.72-10Z" fill="#7859CF"></path></svg><svg viewBox="0 0 20 20" fill="none" id="arrow-to-right"><path fill-rule="evenodd" clip-rule="evenodd" d="m6.28 0-1.28 1.32 8.43 8.68-8.43 8.68 1.28 1.32 9.72-10-9.72-10Z" fill="#7859CF"></path></svg><svg viewBox="0 0 10 10" fill="none" id="arrow-to-up"><path fill-rule="evenodd" clip-rule="evenodd" d="m0 7.8 1.24 1.2 3.76-3.62 3.76 3.62 1.24-1.2-5-4.8-5 4.8Z" fill="#7859CF"></path></svg><svg viewBox="0 0 16 16" fill="none" id="cart-icon"><path fill-rule="evenodd" clip-rule="evenodd" d="m5.66 3.88.23 2.79h4.22l.23-2.8a2.35 2.35 0 1 0-4.68 0Zm5.78 2.79.23-2.68a3.68 3.68 0 1 0-7.34 0l.23 2.68h-4.56l.19 1.33.82 5.71a2.67 2.67 0 0 0 2.64 2.29h8.7c1.33 0 2.46-.98 2.64-2.29l.82-5.71.19-1.33h-4.55Zm-.1 1.33h-.06l-.22 2.67h3.02l.38-2.67h-3.13Zm-1.4 0h-3.88l.22 2.67h3.44l.22-2.67Zm-5.22 0h-3.18l.38 2.67h3.02l-.22-2.67Zm1.9 6.67-.23-2.67h3.22l-.22 2.67h-2.78Zm4.33-2.67-.23 2.67h1.63c.67 0 1.23-.5 1.32-1.15l.22-1.52h-2.94Zm-5.9 0 .23 2.67h-1.63c-.67 0-1.23-.5-1.32-1.15l-.22-1.52h2.94Z" fill="#333"></path></svg><svg viewBox="0 0 16 16" fill="none" id="cross-for-close-mob-menu"><path fill-rule="evenodd" clip-rule="evenodd" d="m7.03 8-5.03-5.03.97-.97 5.03 5.03 5.03-5.03.97.97-5.03 5.03 5.03 5.03-.97.97-5.03-5.03-5.03 5.03-.97-.97 5.03-5.03Z" fill="#333"></path></svg><svg viewBox="0 0 52 56" fill="none" id="ecology-icon"><path fill-rule="evenodd" clip-rule="evenodd" d="M41.7 22.12c.78-6.56 1.5-12.77 7.3-18.12-26.5 0-34.15 8.13-38 14-8.54 13.04-.91 25.67.71 28.09a808.64 808.64 0 0 0-4.71 9.47l.88.44a825.82 825.82 0 0 1 4.63-9.32c2.6.87 14.45 4.19 21.99-4.68 5.66-6.66 6.45-13.44 7.2-19.88Z" fill="#F0EBFF"></path><path fill-rule="evenodd" clip-rule="evenodd" d="M8.23 41.05c3.96-7.8 8.46-15.96 13.04-21.05l.73.66c-4.57 5.08-9.07 13.3-13.03 21.12a26.2 26.2 0 0 0 7.12 1.22c4.38.12 9.66-.96 13.65-5.65 5.46-6.42 6.22-12.94 6.98-19.4l.02-.13c.68-5.81 1.38-11.64 5.87-16.8-11.79.23-19.48 2.16-24.67 4.68a23.8 23.8 0 0 0-10.1 8.85 22.6 22.6 0 0 0-2.94 18.88 28.93 28.93 0 0 0 3.33 7.63Zm-.52 1.04c-1.62-2.42-9.25-15.05-.71-28.09 3.78-5.76 11.23-13.7 36.55-14h1.45a22 22 0 0 0-1.02 1c-4.87 5.12-5.55 10.96-6.27 17.12-.76 6.44-1.55 13.22-7.21 19.88-7.54 8.87-19.4 5.55-21.99 4.68l-2.65 5.32c-.68 1.4-1.34 2.73-1.98 4l-.88-.44 1.97-3.96 2.74-5.51Z" fill="#7859CF"></path></svg><svg viewBox="0 0 52 56" fill="none" id="energy-icon"><path fill-rule="evenodd" clip-rule="evenodd" d="m24.97 35.2 18.16-31.2-34.13 26.68 15.97 4.52Zm6.06-10.4-18.16 31.2 34.13-26.68-15.97-4.52Z" fill="#F0EBFF"></path><path fill-rule="evenodd" clip-rule="evenodd" d="m39.13 0-34.13 26.68 15.97 4.52-12.1 20.8 34.13-26.68-15.97-4.52 12.1-20.8Zm1.7 25.75-15.32-4.34 10.15-17.42-28.5 22.26 15.33 4.34-10.15 17.42 28.5-22.26Z" fill="#7859CF"></path></svg><svg viewBox="0 0 52 56" fill="none" id="fit-icon"><path d="M4 4h48l-4 44-20 8-20-8-4-44Z" fill="#F0EBFF"></path><path fill-rule="evenodd" clip-rule="evenodd" d="M1 0h-1l.1 1 3.9 43 20 8 20-8 3.9-43 .1-1h-47Zm.1 1 .36 4h45.08l.37-4h-45.81Zm40.8 5h-35.8l.1 1.13-.5.05-.5.04-.11-1.22h-3.54l3.39 37.3 19.06 7.62 19.06-7.62 3.39-37.3h-3.54l-.1 1.22-.5-.04-.5-.05.1-1.13Zm-35.8 5.62-.5.04.39 4.45.5-.05.5-.04-.4-4.45-.5.05Zm.78 8.88-.5.05.4 4.44.5-.04.5-.05-.4-4.44-.5.04Zm.8 8.89-.5.04.4 4.45.5-.05.49-.04-.4-4.45-.5.05Zm.79 8.88-.5.05.2 2.22 1.98.8.18-.46.2-.46-1.42-.58-.15-1.61-.5.04Zm5.82 4.23-.19.46 3.96 1.62.2-.47.18-.46-3.96-1.61-.19.46Zm7.92 3.23-.19.46 1.98.81 1.98-.8-.19-.47-.19-.46-1.6.65-1.6-.65-.19.46Zm7.54-1.62.19.47 3.96-1.62-.2-.46-.18-.46-3.96 1.61.19.46Zm7.92-3.23.18.47 1.98-.81.2-2.22-.5-.05-.5-.04-.14 1.61-1.41.58.19.46Zm2.26-7.05.5.05.4-4.45-.5-.04-.5-.05-.4 4.45.5.04Zm.8-8.88.49.04.4-4.44-.5-.05-.5-.04-.4 4.44.5.05Zm.78-8.89.5.05.4-4.45-.5-.04-.5-.05-.4 4.45.5.04Z" fill="#7859CF"></path></svg><svg viewBox="0 0 20 16" fill="none" id="icon-for-button"><path fill-rule="evenodd" clip-rule="evenodd" d="M13.67 13.52v-.02h1.35l-.03.21a2.67 2.67 0 0 1-2.64 2.29h-8.7a2.67 2.67 0 0 1-2.64-2.29l-.82-5.71-.19-1.33h4.55l-.22-2.68a3.68 3.68 0 0 1 7.29-.99h-1.37a2.35 2.35 0 0 0-4.59.88l.23 2.79h3.61v1.33h-3.44l.22 2.67h3.44l.01-.17h1.34l-.01.17h1.44v1.33h-1.55l-.23 2.67h1.63c.67 0 1.23-.5 1.32-1.15Zm-8.95-5.52h-3.18l.38 2.67h3.02l-.22-2.67Zm1.9 6.67-.23-2.67h3.22l-.22 2.67h-2.78Zm-1.57-2.67.23 2.67h-1.63c-.67 0-1.23-.5-1.32-1.15l-.22-1.52h2.94Zm10.75-2v-2.8h-2.8v-1.4h2.8v-2.8h1.4v2.8h2.8v1.4h-2.8v2.8h-1.4Z" fill="#fff"></path></svg><svg viewBox="0 0 130 26" fill="none" id="logo-desktop"><path d="M112.98.36h3.61l4.18 17.3 4.16-17.3h3.19l-5.82 25.3h-3.08l-6.24-25.3Zm-1.46 0h3.44l.54 16.68v8.61h-3.98v-25.29Zm15.02 0h3.46v25.3h-3.96v-8.62l.5-16.68Zm-27.61 0 3.12 11.4 3.1-11.4h4.47l-5.5 16.1v9.2h-4.15v-9.2l-5.5-16.1h4.46Zm-4.99 12.01v10.42c-.3.38-.72.82-1.28 1.33a7.77 7.77 0 0 1-5.44 1.88 6.4 6.4 0 0 1-5.47-2.66 9.89 9.89 0 0 1-1.5-3.37 19.58 19.58 0 0 1-.52-4.8v-4.31c0-1.83.16-3.43.5-4.78.33-1.37.82-2.5 1.45-3.4.64-.9 1.4-1.58 2.28-2.02a6.7 6.7 0 0 1 3-.66c1.54 0 2.8.32 3.79.96.99.63 1.74 1.58 2.25 2.83s.82 2.78.92 4.6h-3.97a9 9 0 0 0-.44-2.5 2.44 2.44 0 0 0-.91-1.29c-.4-.26-.9-.4-1.54-.4a2.7 2.7 0 0 0-1.41.37c-.4.23-.74.61-1.02 1.14a6.9 6.9 0 0 0-.6 2.05c-.13.84-.2 1.86-.2 3.06v4.34c0 1.2.08 2.21.23 3.06a7 7 0 0 0 .66 2.07c.3.53.67.92 1.12 1.16.46.23 1 .35 1.62.35a3.06 3.06 0 0 0 1.91-.6l.46-.34v-4.66h-2.93v-3.83h7.04Zm-30.83-12.01h6.56c1.37 0 2.54.3 3.5.87a5.6 5.6 0 0 1 2.22 2.57c.52 1.14.77 2.54.77 4.2a12 12 0 0 1-.44 3.52 6.7 6.7 0 0 1-1.28 2.4 6.33 6.33 0 0 1-1.99 1.54l-1.25.92h-5.32l-.02-4.22h3.7c.56 0 1.03-.15 1.4-.45.37-.32.64-.75.82-1.3.19-.57.28-1.23.28-1.99 0-.8-.08-1.48-.25-2.05a2.56 2.56 0 0 0-.77-1.32c-.35-.3-.8-.46-1.37-.46h-2.44v21.06h-4.12v-25.29Zm9.29 25.3-3.75-11.28 4.31-.02 3.84 11.05v.24h-4.4Zm-12.71-4.21v4.2h-8.9v-4.2h8.9Zm-7.62-21.09v25.3h-4.12v-25.3h4.12Zm6.42 10.25v4.08h-7.7v-4.08h7.7Zm1.17-10.25v4.23h-8.87v-4.23h8.87Zm-20.09 16.38h-4.19v-4.22h4.2c.57 0 1.05-.16 1.41-.48.38-.33.65-.77.82-1.34.16-.58.25-1.23.25-1.95 0-.73-.09-1.4-.27-2.03a3.57 3.57 0 0 0-.8-1.54 1.8 1.8 0 0 0-1.42-.6h-2.86v21.07h-4.1v-25.29h6.96a5.9 5.9 0 0 1 3.56 1.08c.99.72 1.75 1.7 2.27 2.97.54 1.25.8 2.69.8 4.3 0 1.64-.26 3.06-.8 4.26a6.27 6.27 0 0 1-2.27 2.78c-1 .66-2.18 1-3.56 1Zm-14.22-16.38h4.1v17.37c0 1.95-.29 3.53-.87 4.76a5.75 5.75 0 0 1-2.37 2.68 7.09 7.09 0 0 1-3.47.83 7.2 7.2 0 0 1-3.5-.83 5.72 5.72 0 0 1-2.4-2.68 11.5 11.5 0 0 1-.83-4.76v-17.37h4.1v17.37c0 1.1.1 1.95.3 2.54.2.59.5 1 .88 1.21.4.21.88.32 1.45.32.58 0 1.06-.1 1.43-.32.38-.22.67-.62.87-1.21.2-.6.31-1.44.31-2.54v-17.37Zm-16.08 18.64c0-.45-.03-.86-.1-1.23a2.5 2.5 0 0 0-.42-1.03c-.2-.31-.5-.62-.9-.93-.4-.32-.92-.64-1.55-.98-.76-.4-1.5-.8-2.21-1.25a10.8 10.8 0 0 1-1.93-1.56 6.72 6.72 0 0 1-1.36-2.09 7.56 7.56 0 0 1-.5-2.84c0-1.07.16-2.04.47-2.9a6.39 6.39 0 0 1 3.39-3.67c.79-.33 1.66-.5 2.63-.5 1.3 0 2.44.33 3.4 1 .96.68 1.7 1.6 2.23 2.77a9.6 9.6 0 0 1 .8 4.03h-4.1a6.4 6.4 0 0 0-.25-1.9 2.66 2.66 0 0 0-.78-1.3 2.01 2.01 0 0 0-1.37-.47 2.07 2.07 0 0 0-2.07 1.46c-.16.44-.24.94-.24 1.5 0 .41.08.79.24 1.12.17.33.4.62.69.89.29.25.63.5 1.03.75.4.24.84.48 1.32.7.92.46 1.74.96 2.46 1.5.7.53 1.3 1.14 1.78 1.8.48.67.84 1.41 1.08 2.25a10.16 10.16 0 0 1-.08 5.73 5.76 5.76 0 0 1-3.32 3.65 7.41 7.41 0 0 1-5.33.02 6.32 6.32 0 0 1-3.73-4.1c-.37-1.06-.55-2.3-.55-3.74h4.12c0 .76.06 1.42.18 1.96s.3.96.56 1.29c.26.31.56.55.93.71.37.15.8.23 1.28.23.54 0 .97-.13 1.3-.39.32-.25.55-.6.7-1.02.13-.43.2-.92.2-1.46Z" fill="#fff"></path></svg><svg viewBox="0 0 100 20" fill="none" id="logo-mobile"><path d="M86.91.28h2.78l3.2 13.3 3.2-13.3h2.46l-4.47 19.45h-2.37l-4.8-19.45Zm-1.12 0h2.64l.41 12.83v6.62h-3.05v-19.45Zm11.55 0h2.66v19.45h-3.05v-6.62l.4-12.83Zm-21.24 0 2.4 8.76 2.38-8.76h3.45l-4.24 12.39v7.06h-3.19v-7.06l-4.24-12.39h3.44Zm-3.84 9.23v8.02c-.22.3-.55.64-.98 1.03a5.98 5.98 0 0 1-4.19 1.44 4.93 4.93 0 0 1-4.2-2.04 7.6 7.6 0 0 1-1.16-2.6c-.27-1.04-.4-2.27-.4-3.7v-3.31c0-1.4.13-2.63.38-3.67a7.72 7.72 0 0 1 1.12-2.62 4.73 4.73 0 0 1 4.07-2.06c1.18 0 2.15.24 2.9.73a4.5 4.5 0 0 1 1.73 2.18c.4.96.64 2.14.72 3.54h-3.06a6.91 6.91 0 0 0-.34-1.92c-.16-.46-.4-.8-.7-.99-.3-.2-.7-.3-1.18-.3-.41 0-.78.09-1.09.27-.3.18-.57.48-.78.89-.2.4-.36.93-.46 1.57-.1.64-.15 1.43-.15 2.35v3.34c0 .92.05 1.7.17 2.35.12.65.28 1.18.5 1.6.24.4.53.7.87.89.36.18.77.27 1.25.27a2.3 2.3 0 0 0 1.47-.45l.35-.27v-3.59h-2.26v-2.95h5.42Zm-23.71-9.23h5.04c1.06 0 1.95.22 2.7.67a4.3 4.3 0 0 1 1.7 1.98c.4.87.6 1.95.6 3.23 0 1.05-.12 1.95-.35 2.7a5.22 5.22 0 0 1-.98 1.85c-.43.5-.93.89-1.53 1.18l-.96.7h-4.1v-3.24h2.84c.43 0 .79-.11 1.07-.35.29-.24.5-.57.64-1 .14-.43.21-.94.21-1.52 0-.61-.06-1.14-.2-1.58a1.97 1.97 0 0 0-.59-1.01 1.5 1.5 0 0 0-1.05-.36h-1.88v16.2h-3.16v-19.45Zm7.14 19.45-2.88-8.67 3.31-.01 2.95 8.5v.18h-3.38Zm-9.78-3.23v3.23h-6.84v-3.23h6.84Zm-5.86-16.22v19.45h-3.16v-19.45h3.16Zm4.94 7.88v3.14h-5.92v-3.14h5.92Zm.9-7.88v3.25h-6.82v-3.25h6.82Zm-15.45 12.6h-3.22v-3.25h3.22c.45 0 .81-.12 1.1-.37.28-.25.49-.6.62-1.03a5.69 5.69 0 0 0-.01-3.06 2.75 2.75 0 0 0-.62-1.19 1.4 1.4 0 0 0-1.09-.45h-2.2v16.2h-3.16v-19.45h5.36c1.06 0 1.97.28 2.73.83a5.2 5.2 0 0 1 1.76 2.28c.4.97.61 2.07.61 3.32s-.2 2.34-.61 3.27c-.4.92-1 1.63-1.76 2.14-.76.5-1.67.76-2.73.76Zm-10.94-12.6h3.16v13.36a8.6 8.6 0 0 1-.67 3.66 4.42 4.42 0 0 1-1.83 2.06c-.78.43-1.67.64-2.67.64s-1.9-.21-2.7-.64a4.4 4.4 0 0 1-1.83-2.06 8.84 8.84 0 0 1-.65-3.66v-13.36h3.16v13.36c0 .85.07 1.5.23 1.95.15.46.38.77.68.94.3.16.67.24 1.11.24.45 0 .81-.08 1.1-.24.3-.17.52-.48.67-.94.16-.45.24-1.1.24-1.95v-13.36Zm-12.37 14.34c0-.35-.02-.67-.07-.95a1.98 1.98 0 0 0-.33-.8 3.1 3.1 0 0 0-.7-.71c-.3-.24-.7-.5-1.19-.75-.58-.3-1.15-.62-1.7-.96a8.06 8.06 0 0 1-1.48-1.2 5.17 5.17 0 0 1-1.42-3.8c0-.82.12-1.56.35-2.23a4.91 4.91 0 0 1 2.61-2.82 5.1 5.1 0 0 1 4.64.39 5.03 5.03 0 0 1 1.72 2.12c.4.9.61 1.94.61 3.1h-3.15c0-.55-.07-1.04-.2-1.45a2.04 2.04 0 0 0-.6-1 1.55 1.55 0 0 0-1.05-.37c-.4 0-.74.1-1 .31-.27.2-.46.47-.6.82-.11.33-.18.72-.18 1.14a2 2 0 0 0 .19.87c.13.25.3.48.53.68.22.2.48.4.79.58.3.19.65.37 1.01.55.72.34 1.35.73 1.9 1.15a5.9 5.9 0 0 1 2.2 3.11 7.82 7.82 0 0 1-.07 4.4 4.43 4.43 0 0 1-2.55 2.8 5.7 5.7 0 0 1-4.1.01 4.86 4.86 0 0 1-2.87-3.14 8.78 8.78 0 0 1-.42-2.87h3.17a7 7 0 0 0 .14 1.51c.1.41.24.74.43.99a2 2 0 0 0 .71.55c.3.11.62.17.99.17.42 0 .75-.1 1-.3.24-.19.42-.45.53-.78.11-.33.16-.7.16-1.12Z" fill="#fff"></path></svg><svg viewBox="0 0 110 22" fill="none" id="logo-tablet"><path d="M95.6.3h3.06l3.53 14.65 3.52-14.64h2.7l-4.93 21.4h-2.6l-5.28-21.4Zm-1.24 0h2.92l.45 14.12v7.29h-3.37v-21.4Zm12.72 0h2.92v21.4h-3.35v-7.28l.42-14.11Zm-23.37 0 2.64 9.65 2.62-9.64h3.79l-4.66 13.62v7.78h-3.51v-7.78l-4.66-13.62h3.78Zm-4.23 10.16v8.82c-.24.32-.6.7-1.08 1.13a6.58 6.58 0 0 1-4.6 1.59 5.42 5.42 0 0 1-4.63-2.25 8.37 8.37 0 0 1-1.27-2.85c-.29-1.15-.44-2.5-.44-4.07v-3.64c0-1.55.14-2.9.42-4.05.28-1.15.7-2.11 1.24-2.88a5.2 5.2 0 0 1 1.92-1.7c.76-.37 1.6-.56 2.55-.56 1.3 0 2.36.27 3.2.8a4.95 4.95 0 0 1 1.9 2.4c.43 1.06.7 2.36.78 3.9h-3.36a7.6 7.6 0 0 0-.37-2.12c-.18-.5-.44-.87-.77-1.09a2.27 2.27 0 0 0-1.3-.33c-.46 0-.86.1-1.2.3-.34.2-.63.52-.86.98-.23.45-.4 1.02-.5 1.73a17 17 0 0 0-.17 2.59v3.67c0 1 .06 1.87.19 2.59.12.71.3 1.3.55 1.74.26.46.58.78.96.99a3 3 0 0 0 1.36.3 2.55 2.55 0 0 0 1.62-.51l.4-.29v-3.94h-2.5v-3.25h5.96Zm-26.08-10.16h5.55c1.16 0 2.15.25 2.96.74a4.73 4.73 0 0 1 1.88 2.18c.44.96.66 2.14.66 3.55 0 1.16-.13 2.15-.38 2.97a5.35 5.35 0 0 1-2.76 3.34l-1.06.78h-4.5l-.02-3.57h3.13c.47 0 .87-.13 1.18-.38.31-.27.55-.64.7-1.1a6.71 6.71 0 0 0 .03-3.42 2.17 2.17 0 0 0-.66-1.11c-.3-.27-.68-.4-1.16-.4h-2.07v17.83h-3.48v-21.4Zm7.86 21.4-3.17-9.53 3.65-.02 3.24 9.35v.2h-3.72Zm-10.76-3.55v3.56h-7.52v-3.56h7.52Zm-6.44-17.84v21.4h-3.49v-21.4h3.49Zm5.43 8.67v3.45h-6.51v-3.45h6.51Zm.99-8.67v3.57h-7.5v-3.57h7.5Zm-17 13.86h-3.54v-3.57h3.54c.5 0 .9-.14 1.2-.42.32-.27.55-.65.7-1.13a6 6 0 0 0 .2-1.64c0-.62-.07-1.2-.22-1.72a3.02 3.02 0 0 0-.68-1.31c-.3-.33-.7-.5-1.2-.5h-2.42v17.83h-3.47v-21.4h5.9a5 5 0 0 1 3 .91c.84.6 1.48 1.44 1.93 2.51.45 1.06.68 2.28.68 3.65 0 1.38-.23 2.58-.68 3.6a5.3 5.3 0 0 1-1.93 2.35 5.3 5.3 0 0 1-3 .84Zm-12.03-13.87h3.47v14.7c0 1.65-.24 3-.73 4.03a4.86 4.86 0 0 1-2.01 2.26 6 6 0 0 1-2.94.71 6.1 6.1 0 0 1-2.96-.7 4.84 4.84 0 0 1-2.02-2.27 9.73 9.73 0 0 1-.72-4.03v-14.7h3.48v14.7a7 7 0 0 0 .25 2.15c.17.5.42.84.74 1.03.34.18.75.26 1.23.26.5 0 .9-.08 1.21-.26.33-.19.57-.53.74-1.03.17-.5.26-1.21.26-2.15v-14.7Zm-13.6 15.78a6 6 0 0 0-.09-1.05c-.05-.3-.17-.6-.35-.86a3.43 3.43 0 0 0-.78-.8 8.5 8.5 0 0 0-1.3-.82c-.65-.33-1.27-.69-1.87-1.06a8.86 8.86 0 0 1-1.63-1.32 5.69 5.69 0 0 1-1.15-1.76 6.4 6.4 0 0 1-.42-2.41c0-.9.13-1.72.4-2.46a5.4 5.4 0 0 1 2.86-3.1c.67-.28 1.4-.43 2.22-.43 1.11 0 2.07.29 2.88.86a5.53 5.53 0 0 1 1.9 2.33c.44 1 .67 2.13.67 3.41h-3.47c0-.6-.07-1.14-.22-1.6a2.25 2.25 0 0 0-.65-1.1 1.7 1.7 0 0 0-1.17-.4c-.44 0-.8.12-1.1.34-.29.22-.5.51-.64.9-.14.37-.2.79-.2 1.26 0 .35.06.67.2.96.14.27.33.52.58.75.24.21.53.42.87.63.34.2.71.4 1.11.6.79.38 1.48.8 2.09 1.26a6.79 6.79 0 0 1 2.42 3.43 8.6 8.6 0 0 1-.07 4.85 4.87 4.87 0 0 1-2.8 3.09 6.27 6.27 0 0 1-4.5.01 5.35 5.35 0 0 1-3.18-3.47c-.3-.9-.46-1.94-.46-3.16h3.48c0 .65.06 1.2.16 1.66.1.45.26.81.47 1.09a2.22 2.22 0 0 0 1.87.8c.46 0 .83-.12 1.1-.33.27-.22.47-.5.59-.87.12-.36.18-.77.18-1.23Z" fill="#fff"></path></svg><svg viewBox="0 0 16 12" fill="none" id="menu"><path fill-rule="evenodd" clip-rule="evenodd" d="M0 0h16v1.5h-16v-1.5Zm0 5.25h16v1.5h-16v-1.5Zm16 5.25h-16v1.5h16v-1.5Z" fill="#333"></path></svg><svg viewBox="0 0 20 20" fill="none" id="ok-icon"><path fill-rule="evenodd" clip-rule="evenodd" d="M1.4 1.4c-1.4 1.41-1.4 3.67-1.4 8.2v.91c0 4.46 0 6.7 1.4 8.09 1.41 1.4 3.67 1.4 8.2 1.4h.91c4.46 0 6.7 0 8.09-1.4 1.4-1.41 1.4-3.67 1.4-8.2v-.91c0-4.46 0-6.7-1.4-8.09-1.41-1.4-3.67-1.4-8.2-1.4h-.91c-4.46 0-6.7 0-8.09 1.4Zm8.62 8.8a3.03 3.03 0 1 0-.01-6.07 3.03 3.03 0 0 0 0 6.07Zm0-4.28a1.25 1.25 0 0 1 0 2.5c-.69 0-1.25-.56-1.25-1.25a1.23 1.23 0 0 1 1.25-1.25Zm1.21 6.76a5.73 5.73 0 0 0 1.76-.72.88.88 0 0 0 .28-1.24.88.88 0 0 0-1.24-.27 3.85 3.85 0 0 1-4.08 0 .9.9 0 0 0-1.23.27.9.9 0 0 0 .3 1.22 5.8 5.8 0 0 0 1.77.72l-1.69 1.69a.89.89 0 0 0 0 1.25c.18.18.4.25.63.25.24 0 .46-.09.64-.25l1.67-1.67 1.67 1.67a.89.89 0 0 0 1.25-1.25l-1.73-1.67Z" fill="#BDBDBD"></path></svg><svg viewBox="0 0 13 16" fill="none" id="phone-icon"><path fill-rule="evenodd" clip-rule="evenodd" d="M1.48 1.49a2.7 2.7 0 0 0-1.43 2.83l.35 1.77c.93 3.13 2.5 5.77 4.83 8.11l1.4 1.2c.86.72 2.17.8 3.24.2l2.23-1.25c.88-.49 1.17-1.53.63-2.26l-1.93-2.6c-.52-.7-1.6-.82-2.37-.26l-1.38.99a5.23 5.23 0 0 1-2.17-3.67l1.56-.66c.9-.37 1.33-1.33.96-2.11l-1.36-2.93c-.38-.82-1.46-1.1-2.33-.6l-2.23 1.24Zm-.2 2.53c-.12-.6.2-1.22.78-1.55l2.23-1.24c.22-.13.5-.06.59.15l1.36 2.93c.1.2-.02.43-.24.53l-2.43 1.02.02.42a6.28 6.28 0 0 0 3.07 5.16l.36.22 2.13-1.53c.2-.14.46-.11.59.06l1.93 2.61c.14.19.07.45-.15.57l-2.23 1.25c-.59.33-1.3.28-1.77-.12l-1.4-1.19a20.91 20.91 0 0 1-4.48-7.52l-.36-1.77Z" fill="#7859CF"></path></svg><svg viewBox="0 0 22 22" fill="none" id="pinterest-icon"><path d="M11 0a11 11 0 0 0-4 21.25c-.1-.87-.2-2.21.03-3.16l1.29-5.47s-.33-.66-.33-1.63c0-1.53.89-2.67 2-2.67.93 0 1.38.7 1.38 1.54 0 .95-.6 2.36-.9 3.67-.27 1.1.54 1.99 1.62 1.99 1.96 0 3.46-2.07 3.46-5.04 0-2.64-1.9-4.48-4.6-4.48a4.76 4.76 0 0 0-4.96 4.78c0 .94.36 1.96.82 2.5.09.12.1.21.07.32l-.3 1.25c-.05.2-.16.24-.37.15-1.38-.64-2.23-2.65-2.23-4.26 0-3.47 2.52-6.66 7.26-6.66 3.82 0 6.78 2.72 6.78 6.35 0 3.8-2.39 6.84-5.7 6.84-1.12 0-2.17-.58-2.52-1.26l-.69 2.62a12.3 12.3 0 0 1-1.37 2.88 11 11 0 1 0 3.26-21.51Z" fill="#BDBDBD"></path></svg><svg viewBox="0 0 14 20" fill="none" id="ruble-icon"><path fill-rule="evenodd" clip-rule="evenodd" d="M1.87 13.49v-5.4h2.8v5.4h5.13v2.85h-5.13v3.66h-2.8v-3.66h-1.87v-2.85h1.87Z" fill="#102654"></path><path fill-rule="evenodd" clip-rule="evenodd" d="M8.63 2.86h-3.96v5.24h3.96a2.6 2.6 0 0 0 2.57-2.62 2.6 2.6 0 0 0-2.57-2.62Zm-6.76-2.86v10.95h6.76a5.42 5.42 0 0 0 5.37-5.47c0-3.03-2.4-5.48-5.37-5.48h-6.76Z" fill="#102654"></path><path d="M1.87 8.1h-1.87v2.85h1.87v-2.85Z" fill="#102654"></path></svg><svg viewBox="0 0 52 56" fill="none" id="speed-icon"><path fill-rule="evenodd" clip-rule="evenodd" d="M24 4h8v3h-3v3.02c3.82.16 7.39 1.26 10.5 3.06 1.85-1.93 6.26.17 4.76 3.66l-.1-.1a23 23 0 1 1-32.43.1c-2.02-3.03 2.59-6.16 4.77-3.66 3.11-1.8 6.68-2.9 10.5-3.06v-3.02h-3v-3Z" fill="#F0EBFF"></path><path fill-rule="evenodd" clip-rule="evenodd" d="M27 1h-6v1h6v-1Zm-2 2h3v-3h-8v3h3v3.02a22.87 22.87 0 0 0-9.6 2.57l-.15-.17c-1.53-1.76-3.85-1.44-5.3-.4a4.14 4.14 0 0 0-1.6 2.26c-.26.96-.1 2.02.56 3.01l.12.19a23 23 0 1 0 33.99.05l.16-.4c.47-1.08.5-2.13.17-3.04-.32-.9-.95-1.6-1.68-2.06-1.41-.89-3.54-1.06-4.9.36l-.17.2a22.87 22.87 0 0 0-9.6-2.57v-3.02Zm-1 4c-3.86 0-7.49 1-10.64 2.74l-.36.2a22 22 0 1 0 22 0l-.36-.2a21.9 21.9 0 0 0-10.64-2.74Zm-11.5 2.08a23.08 23.08 0 0 0-4.76 3.66 2.98 2.98 0 0 1-.44-.98c-.55-2.31 2.31-4.31 4.35-3.34.3.15.6.37.85.66Zm23 0a23.08 23.08 0 0 1 4.76 3.66c.17-.4.26-.77.3-1.12.2-2.33-2.32-3.74-4.1-3.14-.36.12-.69.32-.96.6Zm-11.5 21.92a2 2 0 0 0 .86-3.8l-.91-.2a2 2 0 0 0 .05 4Zm-.64-4.93-1.34-4.94-.04-.14.05-.15 1.5-4.5.47-1.42.47 1.42 1.5 4.5.05.15-.04.14-1.34 4.94.37.1 7.55-13.42.88.5-7.55 13.42a3 3 0 1 1-2.53-.6Zm-.34-5.06.98 3.59.98-3.59-.98-2.93-.98 2.93Z" fill="#7859CF"></path></svg><svg viewBox="0 0 16 16" fill="none" id="user-icon"><path fill-rule="evenodd" clip-rule="evenodd" d="M10.67 4a2.67 2.67 0 1 1-5.34 0 2.67 2.67 0 0 1 5.34 0Zm1.33 0a4 4 0 1 1-8 0 4 4 0 0 1 8 0Zm-8.8 8.31a7.55 7.55 0 0 1 4.8-1.64c1.84 0 3.56.6 4.8 1.64a4.83 4.83 0 0 1 1.87 3.69h1.33c0-1.77-.84-3.46-2.34-4.71a8.88 8.88 0 0 0-5.66-1.96c-2.12 0-4.16.7-5.66 1.96a6.16 6.16 0 0 0-2.34 4.71h1.33c0-1.33.63-2.66 1.87-3.69Z" fill="#333"></path></svg><svg viewBox="0 0 20 20" fill="none" id="vk-icon"><path fill-rule="evenodd" clip-rule="evenodd" d="M1.4 1.4c-1.4 1.41-1.4 3.67-1.4 8.2v.8c0 4.53 0 6.79 1.4 8.2 1.41 1.4 3.67 1.4 8.2 1.4h.8c4.53 0 6.79 0 8.2-1.4 1.4-1.41 1.4-3.67 1.4-8.2v-.8c0-4.53 0-6.79-1.4-8.2-1.41-1.4-3.67-1.4-8.2-1.4h-.8c-4.53 0-6.79 0-8.2 1.4Zm1.98 4.68c.1 5.2 2.7 8.33 7.26 8.33h.26v-2.98a4.11 4.11 0 0 1 3.45 2.98h2.37a6.58 6.58 0 0 0-3.43-4.18 6.35 6.35 0 0 0 2.93-4.15h-2.15c-.47 1.65-1.85 3.15-3.17 3.3v-3.3h-2.15v5.77c-1.33-.33-3.02-1.95-3.1-5.77h-2.27Z" fill="#BDBDBD"></path></svg></svg>